<svg width="40" height="40" viewBox="0 0 40 40" fill="none" xmlns="http://www.w3.org/2000/svg">
<rect x="0.5" y="0.5" width="39" height="39" rx="9.5" fill="white" stroke="#E2E8F0"/>
<path d="M16.4214 26.4214C16.0309 26.0309 16.0309 25.3977 16.4214 25.0072L19.2929 22.1357C19.6834 21.7452 20.3166 21.7452 20.7071 22.1357L23.5786 25.0072C23.9691 25.3977 23.9691 26.0309 23.5786 26.4214L20.7071 29.2929C20.3166 29.6834 19.6834 29.6834 19.2929 29.2929L16.4214 26.4214Z" fill="#1890FF"/>
<path d="M10.7071 20.7071C10.3166 20.3166 10.3166 19.6834 10.7071 19.2929L13.5786 16.4214C13.9691 16.0309 14.6023 16.0309 14.9928 16.4214L17.8643 19.2929C18.2548 19.6834 18.2548 20.3166 17.8643 20.7071L14.9928 23.5786C14.6023 23.9691 13.9691 23.9691 13.5786 23.5786L10.7071 20.7071Z" fill="#1890FF"/>
<path d="M22.1357 20.7071C21.7452 20.3166 21.7452 19.6834 22.1357 19.2929L25.0072 16.4214C25.3977 16.0309 26.0309 16.0309 26.4214 16.4214L29.2929 19.2929C29.6834 19.6834 29.6834 20.3166 29.2929 20.7071L26.4214 23.5786C26.0309 23.9691 25.3977 23.9691 25.0072 23.5786L22.1357 20.7071Z" fill="#F50000"/>
<path d="M16.4214 14.9928C16.0309 14.6023 16.0309 13.9691 16.4214 13.5786L19.2929 10.7071C19.6834 10.3166 20.3166 10.3166 20.7071 10.7071L23.5786 13.5786C23.9691 13.9691 23.9691 14.6023 23.5786 14.9928L20.7071 17.8643C20.3166 18.2548 19.6834 18.2548 19.2929 17.8643L16.4214 14.9928Z" fill="#1890FF"/>
</svg>
